<svg width="1158" height="746" viewBox="0 0 1158 746" fill="none" xmlns="http://www.w3.org/2000/svg">
<path d="M632.788 97.7403C603.321 101.329 576.907 127.365 558.467 150.61C538.157 176.235 518.207 207.872 498.618 245.525C467.866 304.635 442.649 360.229 417.266 420.231C416.909 421.096 416.299 421.334 415.435 420.945L327.882 380.217C326.999 379.8 326.75 379.15 327.134 378.266C350.069 324.894 373.139 274.711 396.346 227.718C428.511 162.594 470.161 96.0473 522.516 47.3957C548.95 22.8469 583.161 5.06303 618.719 1.09806C660.54 -3.57191 697.609 6.65401 729.929 31.7738C756.212 52.2057 773.569 79.1935 781.997 112.737C784.462 122.536 786.261 133.685 786.564 144.11C787.364 171.771 783.026 198.001 773.548 222.8C763.49 249.066 751.052 274.208 736.236 298.226C712.176 337.252 687.32 374.682 669.957 416.248C659.775 440.63 654.272 464.39 676.563 484.373C689.623 496.077 709.248 503.528 726.575 497.891C731.669 496.243 736.747 493.204 741.811 488.775C761.554 471.512 775.292 450.808 787.52 427.973C798.269 407.916 809.141 387.523 820.137 366.794C849.372 311.605 883.574 253.541 941.92 225.672C1015.56 190.455 1101.92 218.569 1139.92 290.637C1177.22 361.42 1149.08 445.984 1116.1 512.322C1075.18 594.625 1022.1 670.898 968.09 745.121C967.93 745.35 967.73 745.386 967.52 745.229L886.311 689.77C886.209 689.703 886.123 689.615 886.056 689.513C885.989 689.411 885.944 689.296 885.923 689.175C885.902 689.053 885.905 688.928 885.933 688.807C885.96 688.686 886.011 688.572 886.084 688.47C935.23 620.463 985 551.41 1023 479.378C1038.79 449.439 1050.19 420.009 1057.2 391.09C1061.47 373.452 1061.26 357.677 1056.57 343.765C1044.12 306.89 1005.82 297.546 974.55 318.172C967.04 323.11 959.97 329.57 953.35 337.554C937.65 356.407 923.69 377.374 911.46 400.454C893.714 433.967 876.774 467.275 856.885 499.643C830.96 541.859 790.81 585.064 739.305 593.669C705.473 599.322 673.672 594.027 643.901 577.786C610.672 559.662 587.231 533.309 573.576 498.725C565.415 478.053 562.786 454.323 565.769 431.951C567.624 418.047 571.655 402.836 577.863 386.32C586.605 363.053 598.754 338.611 614.31 312.997C626.984 292.12 640.063 270.456 653.548 248.004C670.405 219.94 687.665 188.036 689.759 155.644C690.786 139.707 686.082 125.676 675.646 113.548C670.456 107.525 663.902 103.169 655.985 100.48C647.958 97.7453 640.225 96.8323 632.788 97.7403Z" fill="#6475E9"/>
<path d="M228.191 552.689C209.751 575.934 183.337 601.969 153.868 605.558C146.431 606.466 138.699 605.553 130.672 602.818C122.754 600.129 116.201 595.773 111.011 589.75C100.576 577.623 95.8716 563.592 96.8976 547.655C98.9916 515.263 116.252 483.358 133.108 455.295C146.593 432.843 159.673 411.179 172.348 390.302C187.904 364.687 200.053 340.245 208.795 316.979C215.003 300.463 219.034 285.252 220.889 271.348C223.872 248.976 221.243 225.245 213.081 204.573L110.095 218.925C132.385 238.908 126.882 262.669 116.7 287.051C99.3376 328.617 74.4818 366.046 50.422 405.073C35.6051 429.091 23.1672 454.233 13.1093 480.498C3.63136 505.298 -0.707211 531.528 0.0935823 559.189C0.39598 569.614 2.19437 580.763 4.66035 590.561C13.0883 624.105 30.4441 651.093 56.7289 671.525C89.0477 696.645 126.117 706.871 167.938 702.202C203.497 698.236 237.708 680.452 264.14 655.903C316.497 607.251 358.147 540.705 390.311 475.58C413.518 428.588 436.589 378.405 459.523 325.033C459.908 324.149 459.658 323.499 458.776 323.082L371.222 282.355C370.358 281.965 369.749 282.203 369.391 283.068C344.009 343.07 318.792 398.664 288.039 457.774C268.45 495.426 248.5 527.064 228.191 552.689Z" fill="#6475E9"/>
</svg>
