<svg width="292" height="284" viewBox="0 0 292 284" fill="none" xmlns="http://www.w3.org/2000/svg">
<path d="M92.0147 84L64.5147 153C77.6044 153.833 83.034 150.818 90.0147 140.5L106.015 103.5C115.94 96.4646 122.008 94.3737 134.015 95L116.515 138.5C111.751 156.991 112.897 164.721 122.515 173.5L190.015 219L194.015 263.5C197.59 276.218 202.841 280.284 217.015 283V202.5L165.015 152L184.515 121C206.515 78 169.515 61 150.515 57.5L92.0147 84Z" fill="#29458E"/>
<path d="M251.015 140.5H188.015L197.015 123.5L231.515 124.5C242.297 127.862 246.36 131.543 251.015 140.5Z" fill="#29458E"/>
<path d="M281.015 117H217.015V75.5C217.515 70.5 219.515 68 224.515 67H247.015V85H260.015V67H290.015L290.515 108.5C288.953 114.197 286.737 115.902 281.015 117Z" fill="#29458E"/>
<path d="M211.015 23.5H157.015C155.656 43.0104 167.015 56.5 185.015 56.5C201.015 56.5 210.386 45.9206 211.015 23.5Z" fill="#29458E"/>
<path d="M219.015 20H157.015C163.148 6.55648 170.515 0.5 184.515 0.5C200.015 1 202.015 7 208.015 13.5L217.015 14C222.362 14.1694 224.074 15.1068 226.015 17.5C224.037 19.7854 222.418 20.1824 219.015 20Z" fill="#29458E"/>
<path d="M85.5147 203.5L104.515 171C111.707 183.541 117.254 189.326 131.515 196L100.515 226.5L28.0148 241.5C28.055 230.2 30.3685 224.963 40.5147 218.5L85.5147 203.5Z" fill="#29458E"/>
<path d="M25.5148 194.5H74.5147C74.5844 199.314 73.2717 201.351 68.0147 203.5H19.0148C18.8115 198.554 20.5744 196.764 25.5148 194.5Z" fill="#29458E"/>
<path d="M83.0147 180.5C83.0322 185.772 81.5789 188.045 74.5147 190H27.5148C26.8491 184.626 28.9859 182.777 35.0147 180.5H83.0147Z" fill="#29458E"/>
<path d="M7.01561 135H56.0156C56.0852 139.814 54.7725 141.851 49.5156 144H0.51561C0.31236 139.054 2.07525 137.264 7.01561 135Z" fill="#29458E"/>
<path d="M64.5156 121C64.5331 126.272 63.0798 128.545 56.0156 130.5H9.01561C8.34991 125.126 10.4868 123.277 16.5156 121H64.5156Z" fill="#29458E"/>
<path d="M64.5147 54.5H113.515C113.584 59.3138 112.272 61.3507 107.015 63.5H58.0147C57.8115 58.5537 59.5744 56.7635 64.5147 54.5Z" fill="#29458E"/>
<path d="M122.015 40.5C122.032 45.7719 120.579 48.0454 113.515 50H66.5147C65.849 44.6258 67.9859 42.7766 74.0147 40.5H122.015Z" fill="#29458E"/>
<path d="M92.0147 84L64.5147 153C77.6044 153.833 83.034 150.818 90.0147 140.5L106.015 103.5C115.94 96.4646 122.008 94.3737 134.015 95L116.515 138.5C111.751 156.991 112.897 164.721 122.515 173.5L190.015 219L194.015 263.5C197.59 276.218 202.841 280.284 217.015 283V202.5L165.015 152L184.515 121C206.515 78 169.515 61 150.515 57.5L92.0147 84Z" stroke="#29458E" stroke-linejoin="round"/>
<path d="M251.015 140.5H188.015L197.015 123.5L231.515 124.5C242.297 127.862 246.36 131.543 251.015 140.5Z" stroke="#29458E" stroke-linejoin="round"/>
<path d="M281.015 117H217.015V75.5C217.515 70.5 219.515 68 224.515 67H247.015V85H260.015V67H290.015L290.515 108.5C288.953 114.197 286.737 115.902 281.015 117Z" stroke="#29458E" stroke-linejoin="round"/>
<path d="M211.015 23.5H157.015C155.656 43.0104 167.015 56.5 185.015 56.5C201.015 56.5 210.386 45.9206 211.015 23.5Z" stroke="#29458E" stroke-linejoin="round"/>
<path d="M219.015 20H157.015C163.148 6.55648 170.515 0.5 184.515 0.5C200.015 1 202.015 7 208.015 13.5L217.015 14C222.362 14.1694 224.074 15.1068 226.015 17.5C224.037 19.7854 222.418 20.1824 219.015 20Z" stroke="#29458E" stroke-linejoin="round"/>
<path d="M85.5147 203.5L104.515 171C111.707 183.541 117.254 189.326 131.515 196L100.515 226.5L28.0148 241.5C28.055 230.2 30.3685 224.963 40.5147 218.5L85.5147 203.5Z" stroke="#29458E" stroke-linejoin="round"/>
<path d="M25.5148 194.5H74.5147C74.5844 199.314 73.2717 201.351 68.0147 203.5H19.0148C18.8115 198.554 20.5744 196.764 25.5148 194.5Z" stroke="#29458E" stroke-linejoin="round"/>
<path d="M83.0147 180.5C83.0322 185.772 81.5789 188.045 74.5147 190H27.5148C26.8491 184.626 28.9859 182.777 35.0147 180.5H83.0147Z" stroke="#29458E" stroke-linejoin="round"/>
<path d="M7.01561 135H56.0156C56.0852 139.814 54.7725 141.851 49.5156 144H0.51561C0.31236 139.054 2.07525 137.264 7.01561 135Z" stroke="#29458E" stroke-linejoin="round"/>
<path d="M64.5156 121C64.5331 126.272 63.0798 128.545 56.0156 130.5H9.01561C8.34991 125.126 10.4868 123.277 16.5156 121H64.5156Z" stroke="#29458E" stroke-linejoin="round"/>
<path d="M64.5147 54.5H113.515C113.584 59.3138 112.272 61.3507 107.015 63.5H58.0147C57.8115 58.5537 59.5744 56.7635 64.5147 54.5Z" stroke="#29458E" stroke-linejoin="round"/>
<path d="M122.015 40.5C122.032 45.7719 120.579 48.0454 113.515 50H66.5147C65.849 44.6258 67.9859 42.7766 74.0147 40.5H122.015Z" stroke="#29458E" stroke-linejoin="round"/>
</svg>
